<svg width="19" height="20" viewBox="0 0 19 20" fill="none" xmlns="http://www.w3.org/2000/svg">
<g clip-path="url(#clip0_1_188)">
<path d="M14.1761 15.2053C14.1761 15.2053 14.2108 15.1706 14.2801 15.1013C14.3494 15.0319 14.3841 14.9024 14.3841 14.7126C14.3841 14.5229 14.3148 14.3587 14.1761 14.22C14.0375 14.0814 13.8733 14.012 13.6835 14.012C13.4938 14.012 13.3296 14.0814 13.1909 14.22C13.0522 14.3587 12.9829 14.5229 12.9829 14.7126C12.9829 14.9024 13.0522 15.0666 13.1909 15.2053C13.3296 15.3439 13.4938 15.4132 13.6835 15.4132C13.8733 15.4132 14.0375 15.3439 14.1761 15.2053ZM16.9785 15.2053C16.9785 15.2053 17.0132 15.1706 17.0825 15.1013C17.1519 15.0319 17.1865 14.9024 17.1865 14.7126C17.1865 14.5229 17.1172 14.3587 16.9785 14.22C16.8399 14.0814 16.6757 14.012 16.4859 14.012C16.2962 14.012 16.132 14.0814 15.9933 14.22C15.8546 14.3587 15.7853 14.5229 15.7853 14.7126C15.7853 14.9024 15.8546 15.0666 15.9933 15.2053C16.132 15.3439 16.2962 15.4132 16.4859 15.4132C16.6757 15.4132 16.8399 15.3439 16.9785 15.2053ZM18.5877 12.2605V15.7636C18.5877 16.0555 18.4856 16.3036 18.2812 16.5079C18.0769 16.7123 17.8287 16.8145 17.5368 16.8145H1.42297C1.13106 16.8145 0.882926 16.7123 0.678584 16.5079C0.474241 16.3036 0.37207 16.0555 0.37207 15.7636V12.2605C0.37207 11.9686 0.474241 11.7205 0.678584 11.5162C0.882926 11.3118 1.13106 11.2096 1.42297 11.2096H6.51328L7.99112 12.6984C8.4144 13.1071 8.91066 13.3114 9.4799 13.3114C10.0491 13.3114 10.5454 13.1071 10.9687 12.6984L12.4575 11.2096H17.5368C17.8287 11.2096 18.0769 11.3118 18.2812 11.5162C18.4856 11.7205 18.5877 11.9686 18.5877 12.2605ZM15.03 6.03175C15.154 6.33097 15.103 6.58639 14.8767 6.79803L9.97251 11.7022C9.84114 11.8409 9.67694 11.9102 9.4799 11.9102C9.28285 11.9102 9.11865 11.8409 8.98729 11.7022L4.08307 6.79803C3.85684 6.58639 3.80575 6.33097 3.92981 6.03175C4.05388 5.74713 4.26917 5.60482 4.57568 5.60482H7.37809V0.700606C7.37809 0.510859 7.44742 0.346656 7.58608 0.207995C7.72474 0.0693342 7.88895 3.8147e-06 8.07869 3.8147e-06H10.8811C11.0708 3.8147e-06 11.2351 0.0693342 11.3737 0.207995C11.5124 0.346656 11.5817 0.510859 11.5817 0.700606V5.60482H14.3841C14.6906 5.60482 14.9059 5.74713 15.03 6.03175Z" fill="white"/>
</g>
<defs>
<clipPath id="clip0_1_188">
<rect width="18.58" height="20" fill="white" transform="matrix(1 0 0 -1 0.189941 20)"/>
</clipPath>
</defs>
</svg>
