<svg width="15" height="18" viewBox="0 0 15 18" fill="none" xmlns="http://www.w3.org/2000/svg">
<g clip-path="url(#clip0_1_174)">
<path d="M14.0601 8.61371C14.0601 10.1084 13.6239 11.4527 12.7515 12.6466C11.8791 13.8406 10.7522 14.6668 9.37064 15.1254C9.20985 15.1551 9.09224 15.1343 9.01781 15.0628C8.94337 14.9914 8.90616 14.902 8.90616 14.7949V12.9101C8.90616 12.3325 8.75133 11.9097 8.44168 11.6418C8.7811 11.606 9.08629 11.5524 9.35724 11.481C9.62818 11.4095 9.90806 11.2934 10.1969 11.1326C10.4857 10.9718 10.7269 10.7738 10.9204 10.5386C11.1139 10.3034 11.2717 9.99077 11.3938 9.60073C11.5159 9.21069 11.5769 8.76258 11.5769 8.25642C11.5769 7.53588 11.3417 6.92253 10.8713 6.41637C11.0916 5.87448 11.0678 5.26708 10.7998 4.59418C10.6331 4.54059 10.3919 4.57334 10.0763 4.69244C9.76068 4.81153 9.48675 4.94254 9.25451 5.08546L8.91509 5.29983C8.36129 5.14501 7.78962 5.06759 7.20009 5.06759C6.61056 5.06759 6.03889 5.14501 5.48509 5.29983C5.38981 5.23433 5.26327 5.15394 5.10547 5.05866C4.94766 4.96338 4.69905 4.84875 4.35962 4.71477C4.02019 4.58078 3.76413 4.54059 3.59144 4.59418C3.32943 5.26708 3.30859 5.87448 3.52892 6.41637C3.05848 6.92253 2.82326 7.53588 2.82326 8.25642C2.82326 8.76258 2.8843 9.2092 3.00638 9.59626C3.12845 9.98333 3.28477 10.296 3.47532 10.5342C3.66588 10.7723 3.90556 10.9718 4.19437 11.1326C4.48318 11.2934 4.76306 11.4095 5.03401 11.481C5.30495 11.5524 5.61014 11.606 5.94957 11.6418C5.71137 11.8561 5.56548 12.1628 5.51188 12.5618C5.38683 12.6213 5.25285 12.666 5.10993 12.6958C4.96701 12.7255 4.7973 12.7404 4.60079 12.7404C4.40428 12.7404 4.20926 12.6764 4.01573 12.5484C3.82219 12.4204 3.65695 12.2343 3.51998 11.9901C3.40684 11.7996 3.26244 11.6447 3.08677 11.5256C2.9111 11.4065 2.76372 11.3351 2.64462 11.3113L2.46597 11.2845C2.34092 11.2845 2.25458 11.2979 2.20694 11.3247C2.1593 11.3515 2.14441 11.3857 2.16228 11.4274C2.18014 11.4691 2.20694 11.5108 2.24267 11.5524C2.2784 11.5941 2.3171 11.6298 2.35879 11.6596L2.42131 11.7043C2.55232 11.7638 2.68184 11.877 2.80987 12.0437C2.9379 12.2104 3.03169 12.3623 3.09123 12.4993L3.18056 12.7047C3.25797 12.931 3.38898 13.1141 3.57358 13.254C3.75818 13.394 3.95767 13.4833 4.17204 13.522C4.38642 13.5607 4.59335 13.5816 4.79284 13.5845C4.99232 13.5875 5.15757 13.5771 5.28858 13.5533L5.49402 13.5175C5.49402 13.7438 5.49551 14.0088 5.49849 14.3125C5.50146 14.6162 5.50295 14.777 5.50295 14.7949C5.50295 14.902 5.46425 14.9914 5.38683 15.0628C5.30942 15.1343 5.19032 15.1551 5.02954 15.1254C3.64801 14.6668 2.52106 13.8406 1.64867 12.6466C0.776282 11.4527 0.340088 10.1084 0.340088 8.61371C0.340088 7.36915 0.646763 6.22135 1.26011 5.17031C1.87346 4.11928 2.70566 3.28709 3.75669 2.67374C4.80772 2.06039 5.95552 1.75371 7.20009 1.75371C8.44465 1.75371 9.59245 2.06039 10.6435 2.67374C11.6945 3.28709 12.5267 4.11928 13.1401 5.17031C13.7534 6.22135 14.0601 7.36915 14.0601 8.61371Z" fill="white"/>
</g>
<defs>
<clipPath id="clip0_1_174">
<rect width="13.72" height="17" fill="white" transform="matrix(1 0 0 -1 0.340088 17.27)"/>
</clipPath>
</defs>
</svg>
